<svg id="visual" viewBox="0 0 960 540" width="960" height="540" xmlns="http://www.w3.org/2000/svg" xmlns:xlink="http://www.w3.org/1999/xlink" version="1.1"><rect x="0" y="0" width="960" height="540" fill="#BBCCF7"></rect><path d="M0 111L10 110.5C20 110 40 109 60 121.3C80 133.7 100 159.3 120 155.5C140 151.7 160 118.3 180 111.5C200 104.7 220 124.3 240 128.3C260 132.3 280 120.7 300 116.8C320 113 340 117 360 126C380 135 400 149 420 156.5C440 164 460 165 480 169.5C500 174 520 182 540 175.8C560 169.7 580 149.3 600 149.3C620 149.3 640 169.7 660 164.8C680 160 700 130 720 120.5C740 111 760 122 780 130.5C800 139 820 145 840 146C860 147 880 143 900 131.5C920 120 940 101 950 91.5L960 82L960 541L950 541C940 541 920 541 900 541C880 541 860 541 840 541C820 541 800 541 780 541C760 541 740 541 720 541C700 541 680 541 660 541C640 541 620 541 600 541C580 541 560 541 540 541C520 541 500 541 480 541C460 541 440 541 420 541C400 541 380 541 360 541C340 541 320 541 300 541C280 541 260 541 240 541C220 541 200 541 180 541C160 541 140 541 120 541C100 541 80 541 60 541C40 541 20 541 10 541L0 541Z" fill="#d4dbfa"></path><path d="M0 141L10 142C20 143 40 145 60 161.3C80 177.7 100 208.3 120 210C140 211.7 160 184.3 180 184.8C200 185.3 220 213.7 240 219.7C260 225.7 280 209.3 300 206.5C320 203.7 340 214.3 360 218C380 221.7 400 218.3 420 217.8C440 217.3 460 219.7 480 211C500 202.3 520 182.7 540 173.8C560 165 580 167 600 163.2C620 159.3 640 149.7 660 157C680 164.3 700 188.7 720 187C740 185.3 760 157.7 780 151.3C800 145 820 160 840 171.5C860 183 880 191 900 193.7C920 196.3 940 193.7 950 192.3L960 191L960 541L950 541C940 541 920 541 900 541C880 541 860 541 840 541C820 541 800 541 780 541C760 541 740 541 720 541C700 541 680 541 660 541C640 541 620 541 600 541C580 541 560 541 540 541C520 541 500 541 480 541C460 541 440 541 420 541C400 541 380 541 360 541C340 541 320 541 300 541C280 541 260 541 240 541C220 541 200 541 180 541C160 541 140 541 120 541C100 541 80 541 60 541C40 541 20 541 10 541L0 541Z" fill="#ccd6f9"></path><path d="M0 227L10 225.5C20 224 40 221 60 220.5C80 220 100 222 120 229.7C140 237.3 160 250.7 180 247.7C200 244.7 220 225.3 240 227.5C260 229.7 280 253.3 300 256C320 258.7 340 240.3 360 226.5C380 212.7 400 203.3 420 214.7C440 226 460 258 480 261.5C500 265 520 240 540 229.8C560 219.7 580 224.3 600 228.3C620 232.3 640 235.7 660 230.5C680 225.3 700 211.7 720 209.8C740 208 760 218 780 229.3C800 240.7 820 253.3 840 263.5C860 273.7 880 281.3 900 276.2C920 271 940 253 950 244L960 235L960 541L950 541C940 541 920 541 900 541C880 541 860 541 840 541C820 541 800 541 780 541C760 541 740 541 720 541C700 541 680 541 660 541C640 541 620 541 600 541C580 541 560 541 540 541C520 541 500 541 480 541C460 541 440 541 420 541C400 541 380 541 360 541C340 541 320 541 300 541C280 541 260 541 240 541C220 541 200 541 180 541C160 541 140 541 120 541C100 541 80 541 60 541C40 541 20 541 10 541L0 541Z" fill="#c4d1f8"></path><path d="M0 293L10 297.5C20 302 40 311 60 315.5C80 320 100 320 120 324.5C140 329 160 338 180 332.7C200 327.3 220 307.7 240 303.7C260 299.7 280 311.3 300 321C320 330.7 340 338.3 360 333.7C380 329 400 312 420 300.7C440 289.3 460 283.7 480 278C500 272.3 520 266.7 540 263C560 259.3 580 257.7 600 271C620 284.3 640 312.7 660 327.7C680 342.7 700 344.3 720 340.3C740 336.3 760 326.7 780 326C800 325.3 820 333.7 840 335.5C860 337.3 880 332.7 900 328.7C920 324.7 940 321.3 950 319.7L960 318L960 541L950 541C940 541 920 541 900 541C880 541 860 541 840 541C820 541 800 541 780 541C760 541 740 541 720 541C700 541 680 541 660 541C640 541 620 541 600 541C580 541 560 541 540 541C520 541 500 541 480 541C460 541 440 541 420 541C400 541 380 541 360 541C340 541 320 541 300 541C280 541 260 541 240 541C220 541 200 541 180 541C160 541 140 541 120 541C100 541 80 541 60 541C40 541 20 541 10 541L0 541Z" fill="#bbccf7"></path><path d="M0 348L10 345.8C20 343.7 40 339.3 60 342.8C80 346.3 100 357.7 120 364.7C140 371.7 160 374.3 180 373.3C200 372.3 220 367.7 240 366C260 364.3 280 365.7 300 366.7C320 367.7 340 368.3 360 363C380 357.7 400 346.3 420 339.3C440 332.3 460 329.7 480 336.2C500 342.7 520 358.3 540 357.5C560 356.7 580 339.3 600 341.3C620 343.3 640 364.7 660 371.7C680 378.7 700 371.3 720 359.3C740 347.3 760 330.7 780 324.7C800 318.7 820 323.3 840 328C860 332.7 880 337.3 900 346C920 354.7 940 367.3 950 373.7L960 380L960 541L950 541C940 541 920 541 900 541C880 541 860 541 840 541C820 541 800 541 780 541C760 541 740 541 720 541C700 541 680 541 660 541C640 541 620 541 600 541C580 541 560 541 540 541C520 541 500 541 480 541C460 541 440 541 420 541C400 541 380 541 360 541C340 541 320 541 300 541C280 541 260 541 240 541C220 541 200 541 180 541C160 541 140 541 120 541C100 541 80 541 60 541C40 541 20 541 10 541L0 541Z" fill="#b2c6f6"></path><path d="M0 402L10 405C20 408 40 414 60 421.8C80 429.7 100 439.3 120 437.5C140 435.7 160 422.3 180 421C200 419.7 220 430.3 240 431C260 431.7 280 422.3 300 419C320 415.7 340 418.3 360 415.8C380 413.3 400 405.7 420 401.8C440 398 460 398 480 394.3C500 390.7 520 383.3 540 388C560 392.7 580 409.3 600 412C620 414.7 640 403.3 660 402.8C680 402.3 700 412.7 720 420.2C740 427.7 760 432.3 780 436.5C800 440.7 820 444.3 840 438.7C860 433 880 418 900 418.5C920 419 940 435 950 443L960 451L960 541L950 541C940 541 920 541 900 541C880 541 860 541 840 541C820 541 800 541 780 541C760 541 740 541 720 541C700 541 680 541 660 541C640 541 620 541 600 541C580 541 560 541 540 541C520 541 500 541 480 541C460 541 440 541 420 541C400 541 380 541 360 541C340 541 320 541 300 541C280 541 260 541 240 541C220 541 200 541 180 541C160 541 140 541 120 541C100 541 80 541 60 541C40 541 20 541 10 541L0 541Z" fill="#aabff6"></path><path d="M0 447L10 450C20 453 40 459 60 463C80 467 100 469 120 466.7C140 464.3 160 457.7 180 454.8C200 452 220 453 240 453.3C260 453.7 280 453.3 300 461C320 468.7 340 484.3 360 487.5C380 490.7 400 481.3 420 477.8C440 474.3 460 476.7 480 477.2C500 477.7 520 476.3 540 474C560 471.7 580 468.3 600 467.8C620 467.3 640 469.7 660 473C680 476.3 700 480.7 720 486C740 491.3 760 497.7 780 495.5C800 493.3 820 482.7 840 481C860 479.3 880 486.7 900 482.3C920 478 940 462 950 454L960 446L960 541L950 541C940 541 920 541 900 541C880 541 860 541 840 541C820 541 800 541 780 541C760 541 740 541 720 541C700 541 680 541 660 541C640 541 620 541 600 541C580 541 560 541 540 541C520 541 500 541 480 541C460 541 440 541 420 541C400 541 380 541 360 541C340 541 320 541 300 541C280 541 260 541 240 541C220 541 200 541 180 541C160 541 140 541 120 541C100 541 80 541 60 541C40 541 20 541 10 541L0 541Z" fill="#a1b9f5"></path></svg>