<svg id="visual" viewBox="0 0 960 540" width="960" height="540" xmlns="http://www.w3.org/2000/svg" xmlns:xlink="http://www.w3.org/1999/xlink" version="1.1"><path d="M0 66L10.7 57C21.3 48 42.7 30 64 29C85.3 28 106.7 44 128 54.8C149.3 65.7 170.7 71.3 192 66.8C213.3 62.3 234.7 47.7 256 39.5C277.3 31.3 298.7 29.7 320 29.7C341.3 29.7 362.7 31.3 384 26.7C405.3 22 426.7 11 448 5.5C469.3 0 490.7 0 512 2C533.3 4 554.7 8 576 14.5C597.3 21 618.7 30 640 33.5C661.3 37 682.7 35 704 28.5C725.3 22 746.7 11 768 14.7C789.3 18.3 810.7 36.7 832 44C853.3 51.3 874.7 47.7 896 43.2C917.3 38.7 938.7 33.3 949.3 30.7L960 28L960 0L949.3 0C938.7 0 917.3 0 896 0C874.7 0 853.3 0 832 0C810.7 0 789.3 0 768 0C746.7 0 725.3 0 704 0C682.7 0 661.3 0 640 0C618.7 0 597.3 0 576 0C554.7 0 533.3 0 512 0C490.7 0 469.3 0 448 0C426.7 0 405.3 0 384 0C362.7 0 341.3 0 320 0C298.7 0 277.3 0 256 0C234.7 0 213.3 0 192 0C170.7 0 149.3 0 128 0C106.7 0 85.3 0 64 0C42.7 0 21.3 0 10.7 0L0 0Z" fill="#d4dbfa"></path><path d="M0 93L10.7 104.7C21.3 116.3 42.7 139.7 64 165.7C85.3 191.7 106.7 220.3 128 242C149.3 263.7 170.7 278.3 192 249.7C213.3 221 234.7 149 256 147.2C277.3 145.3 298.7 213.7 320 227.2C341.3 240.7 362.7 199.3 384 167.8C405.3 136.3 426.7 114.7 448 105.7C469.3 96.7 490.7 100.3 512 105.7C533.3 111 554.7 118 576 151.2C597.3 184.3 618.7 243.7 640 236.5C661.3 229.3 682.7 155.7 704 123.3C725.3 91 746.7 100 768 115.3C789.3 130.7 810.7 152.3 832 177.5C853.3 202.7 874.7 231.3 896 224.2C917.3 217 938.7 174 949.3 152.5L960 131L960 26L949.3 28.7C938.7 31.3 917.3 36.7 896 41.2C874.7 45.7 853.3 49.3 832 42.3C810.7 35.3 789.3 17.7 768 14C746.7 10.3 725.3 20.7 704 26.8C682.7 33 661.3 35 640 31.5C618.7 28 597.3 19 576 12.8C554.7 6.7 533.3 3.3 512 1.7C490.7 0 469.3 0 448 5.2C426.7 10.3 405.3 20.7 384 25C362.7 29.3 341.3 27.7 320 27.7C298.7 27.7 277.3 29.3 256 37.5C234.7 45.7 213.3 60.3 192 64.8C170.7 69.3 149.3 63.7 128 52.8C106.7 42 85.3 26 64 27C42.7 28 21.3 46 10.7 55L0 64Z" fill="#ccd6f9"></path><path d="M0 168L10.7 168C21.3 168 42.7 168 64 188.8C85.3 209.7 106.7 251.3 128 282.8C149.3 314.3 170.7 335.7 192 302.3C213.3 269 234.7 181 256 172C277.3 163 298.7 233 320 258.2C341.3 283.3 362.7 263.7 384 235C405.3 206.3 426.7 168.7 448 159.7C469.3 150.7 490.7 170.3 512 176.5C533.3 182.7 554.7 175.3 576 200.5C597.3 225.7 618.7 283.3 640 282.5C661.3 281.7 682.7 222.3 704 199C725.3 175.7 746.7 188.3 768 197.3C789.3 206.3 810.7 211.7 832 222.5C853.3 233.3 874.7 249.7 896 247.8C917.3 246 938.7 226 949.3 216L960 206L960 129L949.3 150.5C938.7 172 917.3 215 896 222.2C874.7 229.3 853.3 200.7 832 175.5C810.7 150.3 789.3 128.7 768 113.3C746.7 98 725.3 89 704 121.3C682.7 153.7 661.3 227.3 640 234.5C618.7 241.7 597.3 182.3 576 149.2C554.7 116 533.3 109 512 103.7C490.7 98.3 469.3 94.7 448 103.7C426.7 112.7 405.3 134.3 384 165.8C362.7 197.3 341.3 238.7 320 225.2C298.7 211.7 277.3 143.3 256 145.2C234.7 147 213.3 219 192 247.7C170.7 276.3 149.3 261.7 128 240C106.7 218.3 85.3 189.7 64 163.7C42.7 137.7 21.3 114.3 10.7 102.7L0 91Z" fill="#c4d1f8"></path><path d="M0 363L10.7 356.7C21.3 350.3 42.7 337.7 64 327.7C85.3 317.7 106.7 310.3 128 323C149.3 335.7 170.7 368.3 192 374.7C213.3 381 234.7 361 256 344.7C277.3 328.3 298.7 315.7 320 317.5C341.3 319.3 362.7 335.7 384 322.2C405.3 308.7 426.7 265.3 448 278.8C469.3 292.3 490.7 362.7 512 362.7C533.3 362.7 554.7 292.3 576 278.8C597.3 265.3 618.7 308.7 640 334.8C661.3 361 682.7 370 704 361.8C725.3 353.7 746.7 328.3 768 318.5C789.3 308.7 810.7 314.3 832 310.8C853.3 307.3 874.7 294.7 896 289.2C917.3 283.7 938.7 285.3 949.3 286.2L960 287L960 204L949.3 214C938.7 224 917.3 244 896 245.8C874.7 247.7 853.3 231.3 832 220.5C810.7 209.7 789.3 204.3 768 195.3C746.7 186.3 725.3 173.7 704 197C682.7 220.3 661.3 279.7 640 280.5C618.7 281.3 597.3 223.7 576 198.5C554.7 173.3 533.3 180.7 512 174.5C490.7 168.3 469.3 148.7 448 157.7C426.7 166.7 405.3 204.3 384 233C362.7 261.7 341.3 281.3 320 256.2C298.7 231 277.3 161 256 170C234.7 179 213.3 267 192 300.3C170.7 333.7 149.3 312.3 128 280.8C106.7 249.3 85.3 207.7 64 186.8C42.7 166 21.3 166 10.7 166L0 166Z" fill="#bbccf7"></path><path d="M0 401L10.7 391C21.3 381 42.7 361 64 353.7C85.3 346.3 106.7 351.7 128 376C149.3 400.3 170.7 443.7 192 460.8C213.3 478 234.7 469 256 458.2C277.3 447.3 298.7 434.7 320 437.3C341.3 440 362.7 458 384 448.2C405.3 438.3 426.7 400.7 448 400.7C469.3 400.7 490.7 438.3 512 432.8C533.3 427.3 554.7 378.7 576 370.7C597.3 362.7 618.7 395.3 640 406.2C661.3 417 682.7 406 704 398.7C725.3 391.3 746.7 387.7 768 389.5C789.3 391.3 810.7 398.7 832 395.2C853.3 391.7 874.7 377.3 896 385.5C917.3 393.7 938.7 424.3 949.3 439.7L960 455L960 285L949.3 284.2C938.7 283.3 917.3 281.7 896 287.2C874.7 292.7 853.3 305.3 832 308.8C810.7 312.3 789.3 306.7 768 316.5C746.7 326.3 725.3 351.7 704 359.8C682.7 368 661.3 359 640 332.8C618.7 306.7 597.3 263.3 576 276.8C554.7 290.3 533.3 360.7 512 360.7C490.7 360.7 469.3 290.3 448 276.8C426.7 263.3 405.3 306.7 384 320.2C362.7 333.7 341.3 317.3 320 315.5C298.7 313.7 277.3 326.3 256 342.7C234.7 359 213.3 379 192 372.7C170.7 366.3 149.3 333.7 128 321C106.7 308.3 85.3 315.7 64 325.7C42.7 335.7 21.3 348.3 10.7 354.7L0 361Z" fill="#b2c6f6"></path><path d="M0 455L10.7 444.2C21.3 433.3 42.7 411.7 64 412.5C85.3 413.3 106.7 436.7 128 453.7C149.3 470.7 170.7 481.3 192 494C213.3 506.7 234.7 521.3 256 510.7C277.3 500 298.7 464 320 463C341.3 462 362.7 496 384 499.5C405.3 503 426.7 476 448 477.8C469.3 479.7 490.7 510.3 512 504C533.3 497.7 554.7 454.3 576 443.5C597.3 432.7 618.7 454.3 640 459.8C661.3 465.3 682.7 454.7 704 446.7C725.3 438.7 746.7 433.3 768 444.2C789.3 455 810.7 482 832 487.3C853.3 492.7 874.7 476.3 896 470C917.3 463.7 938.7 467.3 949.3 469.2L960 471L960 453L949.3 437.7C938.7 422.3 917.3 391.7 896 383.5C874.7 375.3 853.3 389.7 832 393.2C810.7 396.7 789.3 389.3 768 387.5C746.7 385.7 725.3 389.3 704 396.7C682.7 404 661.3 415 640 404.2C618.7 393.3 597.3 360.7 576 368.7C554.7 376.7 533.3 425.3 512 430.8C490.7 436.3 469.3 398.7 448 398.7C426.7 398.7 405.3 436.3 384 446.2C362.7 456 341.3 438 320 435.3C298.7 432.7 277.3 445.3 256 456.2C234.7 467 213.3 476 192 458.8C170.7 441.7 149.3 398.3 128 374C106.7 349.7 85.3 344.3 64 351.7C42.7 359 21.3 379 10.7 389L0 399Z" fill="#aabff6"></path><path d="M0 541L10.7 541C21.3 541 42.7 541 64 541C85.3 541 106.7 541 128 541C149.3 541 170.7 541 192 541C213.3 541 234.7 541 256 541C277.3 541 298.7 541 320 541C341.3 541 362.7 541 384 541C405.3 541 426.7 541 448 541C469.3 541 490.7 541 512 541C533.3 541 554.7 541 576 541C597.3 541 618.7 541 640 541C661.3 541 682.7 541 704 541C725.3 541 746.7 541 768 541C789.3 541 810.7 541 832 541C853.3 541 874.7 541 896 541C917.3 541 938.7 541 949.3 541L960 541L960 469L949.3 467.2C938.7 465.3 917.3 461.7 896 468C874.7 474.3 853.3 490.7 832 485.3C810.7 480 789.3 453 768 442.2C746.7 431.3 725.3 436.7 704 444.7C682.7 452.7 661.3 463.3 640 457.8C618.7 452.3 597.3 430.7 576 441.5C554.7 452.3 533.3 495.7 512 502C490.7 508.3 469.3 477.7 448 475.8C426.7 474 405.3 501 384 497.5C362.7 494 341.3 460 320 461C298.7 462 277.3 498 256 508.7C234.7 519.3 213.3 504.7 192 492C170.7 479.3 149.3 468.7 128 451.7C106.7 434.7 85.3 411.3 64 410.5C42.7 409.7 21.3 431.3 10.7 442.2L0 453Z" fill="#a1b9f5"></path></svg>